<svg width="24" height="24" viewBox="0 0 24 24" fill="none" xmlns="http://www.w3.org/2000/svg">
<rect width="24" height="24" fill="white"/>
<path d="M19.0199 4.97522C17.6309 3.58682 15.8614 2.64148 13.9351 2.25875C12.0088 1.87602 10.0123 2.07308 8.19802 2.82502C6.38373 3.57696 4.83315 4.85 3.74237 6.48317C2.65159 8.11634 2.06958 10.0363 2.06995 12.0002C2.06995 14.6343 3.11598 17.1605 4.97807 19.0236C6.84017 20.8866 9.36589 21.9339 11.9999 21.9352C13.3034 21.9353 14.5943 21.6805 15.7999 21.1852C17.0015 20.6777 18.0946 19.9445 19.0199 19.0252C19.9426 18.1027 20.6745 17.0076 21.1738 15.8022C21.6731 14.5968 21.9301 13.3049 21.9301 12.0002C21.9301 10.6955 21.6731 9.40361 21.1738 8.19825C20.6745 6.99289 19.9426 5.8977 19.0199 4.97522ZM18.3199 18.3152C16.8901 19.7514 15.0137 20.6578 12.9999 20.8852V14.3252H14.8799C15.1452 14.3252 15.3995 14.2199 15.5871 14.0323C15.7746 13.8448 15.8799 13.5904 15.8799 13.3252C15.8799 13.06 15.7746 12.8057 15.5871 12.6181C15.3995 12.4306 15.1452 12.3252 14.8799 12.3252H12.9999V9.58522C12.9999 9.32001 13.1053 9.06565 13.2928 8.87812C13.4804 8.69058 13.7347 8.58522 13.9999 8.58522H15.1999C15.4652 8.58522 15.7195 8.47987 15.9071 8.29233C16.0946 8.10479 16.1999 7.85044 16.1999 7.58522C16.1999 7.32001 16.0946 7.06565 15.9071 6.87812C15.7195 6.69058 15.4652 6.58522 15.1999 6.58522H13.4999C12.8369 6.58522 12.201 6.84862 11.7322 7.31746C11.2633 7.7863 10.9999 8.42218 10.9999 9.08522V12.3252H9.12995C8.86473 12.3252 8.61038 12.4306 8.42284 12.6181C8.2353 12.8057 8.12995 13.06 8.12995 13.3252C8.12995 13.5904 8.2353 13.8448 8.42284 14.0323C8.61038 14.2199 8.86473 14.3252 9.12995 14.3252H10.9999V20.8852C9.14284 20.6734 7.39923 19.8834 6.0154 18.6269C4.63156 17.3704 3.67746 15.7109 3.28785 13.8828C2.89823 12.0547 3.0928 10.1504 3.84408 8.43888C4.59535 6.72735 5.86535 5.2951 7.4747 4.34444C9.08404 3.39378 10.9514 2.97276 12.813 3.14084C14.6746 3.30892 16.4363 4.05762 17.8493 5.28117C19.2624 6.50472 20.2553 8.14128 20.6878 9.9597C21.1204 11.7781 20.9707 13.6865 20.2599 15.4152C19.8064 16.498 19.1476 17.4827 18.3199 18.3152Z" fill="black"/>
</svg>
