<svg width="30" height="30" viewBox="0 0 30 30" fill="none" xmlns="http://www.w3.org/2000/svg">
<g clip-path="url(#clip0_477_1534)">
<rect width="30" height="30" fill="white"/>
<path d="M23.2375 0H6.7625C3.0275 0 0 3.0275 0 6.7625V23.2375C0 26.9725 3.0275 30 6.7625 30H23.2375C26.9725 30 30 26.9725 30 23.2375V6.7625C30 3.0275 26.9713 0 23.2375 0ZM22.855 18.5812C20.7563 20.9963 16.065 23.9387 14.9975 24.3888C13.93 24.8387 14.0875 24.1025 14.1313 23.8488C14.1575 23.6988 14.2737 22.9925 14.2737 22.9925C14.3075 22.7375 14.3425 22.3412 14.2412 22.0887C14.1287 21.81 13.6862 21.6662 13.36 21.595C8.55375 20.96 4.995 17.6 4.995 13.5875C4.995 9.1125 9.4825 5.47 14.9975 5.47C20.5125 5.47 25 9.11125 25 13.5875C24.9988 15.3775 24.305 16.9912 22.855 18.5812Z" fill="black"/>
<path d="M19.7625 12.5151V13.2513H21.6725C21.7775 13.2513 21.8638 13.3376 21.8638 13.4426V14.1526C21.8638 14.2576 21.7788 14.3438 21.6725 14.3438H19.7625V15.0801H21.6725C21.7775 15.0801 21.8638 15.1663 21.8638 15.2713V15.9813C21.8638 16.0863 21.7788 16.1713 21.6725 16.1713H18.8625C18.7575 16.1713 18.6713 16.0863 18.6713 15.9813V11.6151C18.6713 11.5101 18.7563 11.4238 18.8625 11.4238H21.6725C21.7775 11.4238 21.8638 11.5088 21.8638 11.6151V12.3238C21.8638 12.4288 21.7788 12.5151 21.6725 12.5151H19.7625Z" fill="black"/>
<path d="M11.4675 15.2713V15.9813C11.4675 16.0863 11.3825 16.1713 11.2762 16.1713H8.46625C8.36125 16.1713 8.27625 16.0863 8.27625 15.9813V11.6151C8.27625 11.5101 8.36125 11.4238 8.46625 11.4238H9.17625C9.28125 11.4238 9.3675 11.5088 9.3675 11.6151V15.0801H11.2775C11.3825 15.0801 11.4675 15.1663 11.4675 15.2713Z" fill="black"/>
<path d="M13.16 11.6151V15.9801C13.16 16.0851 13.075 16.1701 12.9687 16.1701H12.26C12.155 16.1701 12.0687 16.0851 12.0687 15.9801V11.6151C12.0687 11.5101 12.1537 11.4238 12.26 11.4238H12.9687C13.0737 11.4238 13.16 11.5101 13.16 11.6151Z" fill="black"/>
<path d="M17.9887 11.6151V15.9801C17.9887 16.0851 17.9037 16.1701 17.7975 16.1701H17.0925C17.03 16.1701 16.9687 16.1388 16.9325 16.0876L14.9325 13.3876V15.9801C14.9325 16.0851 14.8475 16.1701 14.7412 16.1701H14.0312C13.9262 16.1701 13.84 16.0851 13.84 15.9801V11.6151C13.84 11.5101 13.925 11.4238 14.0312 11.4238H14.7362C14.8025 11.4238 14.86 11.4588 14.8987 11.5101L16.8962 14.2076V11.6151C16.8962 11.5101 16.9812 11.4238 17.0875 11.4238H17.7975C17.9037 11.4238 17.9887 11.5101 17.9887 11.6151Z" fill="black"/>
</g>
<defs>
<clipPath id="clip0_477_1534">
<rect width="30" height="30" fill="white"/>
</clipPath>
</defs>
</svg>
