<svg width="192" height="24" viewBox="0 0 192 24" fill="none" xmlns="http://www.w3.org/2000/svg">
<path d="M22.824 12.072C22.744 12.152 22.608 12.248 22.416 12.36C22.24 12.472 22.152 12.584 22.152 12.696V22.272C22.152 22.4 22.056 22.504 21.864 22.584C21.672 22.664 21.448 22.728 21.192 22.776C20.952 22.84 20.712 22.88 20.472 22.896C20.232 22.928 20.064 22.944 19.968 22.944C19.904 22.944 19.808 22.936 19.68 22.92C19.568 22.904 19.512 22.848 19.512 22.752V11.952C19.512 11.792 19.432 11.712 19.272 11.712H17.04C16.88 11.712 16.8 11.792 16.8 11.952V20.832C16.8 20.992 16.88 21.072 17.04 21.072H18.84C18.872 21.072 18.904 21.072 18.936 21.072C18.968 21.088 18.984 21.112 18.984 21.144C18.984 21.272 18.904 21.352 18.744 21.384C18.584 21.432 18.4 21.456 18.192 21.456C18 21.456 17.8 21.448 17.592 21.432C17.4 21.416 17.264 21.408 17.184 21.408C17.04 21.408 16.936 21.504 16.872 21.696C16.808 21.888 16.744 22.04 16.68 22.152C16.456 22.552 16.16 22.808 15.792 22.92C15.44 23.032 15.056 23.088 14.64 23.088C14.48 23.088 14.4 23.008 14.4 22.848C14.4 22.288 14.392 21.736 14.376 21.192C14.376 20.664 14.368 20.12 14.352 19.56C14.32 18.36 14.304 17.176 14.304 16.008C14.32 14.84 14.312 13.656 14.28 12.456C14.264 12.136 14.248 11.808 14.232 11.472C14.232 11.136 14.232 10.808 14.232 10.488C14.232 10.36 14.304 10.296 14.448 10.296C14.64 10.296 14.896 10.384 15.216 10.56C15.536 10.736 15.856 10.904 16.176 11.064C16.512 11.224 16.824 11.336 17.112 11.4C17.4 11.448 17.616 11.344 17.76 11.088C17.76 11.088 17.792 10.952 17.856 10.68C17.936 10.408 18.024 10.072 18.12 9.672C18.232 9.256 18.352 8.808 18.48 8.328C18.608 7.848 18.72 7.4 18.816 6.984C18.928 6.568 19.016 6.216 19.08 5.928C19.16 5.64 19.2 5.48 19.2 5.448C19.2 5.384 19.208 5.288 19.224 5.16C19.24 5.016 19.24 4.872 19.224 4.728C19.224 4.584 19.2 4.456 19.152 4.344C19.12 4.232 19.056 4.176 18.96 4.176C17.808 4.176 16.672 4.24 15.552 4.368C14.448 4.48 13.32 4.536 12.168 4.536C11.848 4.536 11.528 4.552 11.208 4.584C10.888 4.616 10.568 4.592 10.248 4.512L10.152 4.44C10.152 4.312 10.232 4.232 10.392 4.2C10.744 4.104 11.088 4.032 11.424 3.984C11.776 3.92 12.128 3.84 12.48 3.744C13.312 3.504 14.12 3.208 14.904 2.856C15.688 2.488 16.464 2.104 17.232 1.704C17.296 1.672 17.424 1.6 17.616 1.488C17.824 1.376 18.032 1.264 18.24 1.152C18.448 1.04 18.64 0.943999 18.816 0.863999C18.992 0.767999 19.104 0.719999 19.152 0.719999C19.2 0.719999 19.296 0.791999 19.44 0.935999C19.6 1.064 19.784 1.232 19.992 1.44C20.216 1.648 20.448 1.88 20.688 2.136C20.944 2.392 21.176 2.632 21.384 2.856C21.608 3.08 21.808 3.288 21.984 3.48C22.16 3.656 22.28 3.776 22.344 3.84L22.392 3.96L22.32 4.056C22.192 4.056 21.976 4.032 21.672 3.984C21.368 3.92 21.056 3.88 20.736 3.864C20.416 3.848 20.128 3.872 19.872 3.936C19.632 4 19.512 4.144 19.512 4.368C19.512 4.608 19.672 4.816 19.992 4.992C20.312 5.168 20.672 5.328 21.072 5.472C21.488 5.6 21.88 5.72 22.248 5.832C22.632 5.944 22.872 6.056 22.968 6.168C22.968 6.216 22.952 6.256 22.92 6.288C22.68 6.576 22.408 6.84 22.104 7.08C21.816 7.304 21.528 7.536 21.24 7.776C20.68 8.256 20.152 8.784 19.656 9.36C19.176 9.936 18.672 10.488 18.144 11.016L18.072 11.184C18.088 11.296 18.136 11.368 18.216 11.4C18.296 11.416 18.376 11.424 18.456 11.424C18.792 11.424 19.072 11.352 19.296 11.208C19.52 11.064 19.704 10.904 19.848 10.728C19.992 10.552 20.112 10.392 20.208 10.248C20.304 10.104 20.4 10.032 20.496 10.032C20.608 10.032 20.792 10.112 21.048 10.272C21.304 10.416 21.56 10.592 21.816 10.8C22.088 11.008 22.32 11.224 22.512 11.448C22.72 11.656 22.84 11.816 22.872 11.928L22.824 12.072ZM6.504 12.312C6.504 12.328 6.496 12.568 6.48 13.032C6.48 13.496 6.48 14.08 6.48 14.784C6.48 15.472 6.48 16.224 6.48 17.04C6.48 17.856 6.48 18.632 6.48 19.368C6.48 20.104 6.48 20.736 6.48 21.264C6.48 21.808 6.48 22.144 6.48 22.272C6.48 22.48 6.376 22.64 6.168 22.752C5.976 22.864 5.736 22.944 5.448 22.992C5.176 23.056 4.904 23.096 4.632 23.112C4.36 23.128 4.152 23.136 4.008 23.136C3.848 23.136 3.768 23.056 3.768 22.896C3.768 21.696 3.8 20.504 3.864 19.32C3.944 18.12 3.984 16.92 3.984 15.72C3.984 15.688 3.968 15.648 3.936 15.6C3.92 15.552 3.888 15.528 3.84 15.528C3.712 15.528 3.552 15.608 3.36 15.768C3.184 15.912 2.984 16.104 2.76 16.344C2.536 16.568 2.304 16.816 2.064 17.088C1.84 17.36 1.632 17.616 1.44 17.856C1.248 18.08 1.08 18.272 0.936 18.432C0.808 18.576 0.728 18.648 0.696 18.648C0.648 18.648 0.624 18.608 0.624 18.528C0.624 18.272 0.688 17.968 0.816 17.616C0.96 17.264 1.12 16.904 1.296 16.536C1.472 16.152 1.648 15.784 1.824 15.432C2.016 15.064 2.152 14.736 2.232 14.448C2.392 13.936 2.504 13.432 2.568 12.936C2.648 12.424 2.728 11.92 2.808 11.424C2.888 10.912 2.984 10.408 3.096 9.912C3.208 9.416 3.384 8.912 3.624 8.4C3.656 8.32 3.688 8.128 3.72 7.824C3.752 7.504 3.776 7.168 3.792 6.816C3.808 6.448 3.816 6.096 3.816 5.76C3.832 5.424 3.84 5.192 3.84 5.064C3.84 4.968 3.816 4.88 3.768 4.8C3.736 4.72 3.664 4.68 3.552 4.68C3.216 4.68 2.88 4.712 2.544 4.776C2.224 4.824 1.896 4.848 1.56 4.848C1.528 4.848 1.48 4.848 1.416 4.848C1.352 4.832 1.32 4.792 1.32 4.728C1.32 4.696 1.352 4.648 1.416 4.584C1.8 4.248 2.208 3.944 2.64 3.672C3.072 3.4 3.504 3.136 3.936 2.88C4.384 2.624 4.824 2.36 5.256 2.088C5.704 1.816 6.128 1.52 6.528 1.2C6.672 1.136 6.816 1.144 6.96 1.224C7.056 1.32 7.248 1.488 7.536 1.728C7.824 1.968 8.128 2.224 8.448 2.496C8.768 2.752 9.048 3 9.288 3.24C9.544 3.464 9.672 3.608 9.672 3.672C9.672 3.752 9.624 3.8 9.528 3.816C9.432 3.816 9.36 3.816 9.312 3.816C9.168 3.816 8.936 3.824 8.616 3.84C8.296 3.84 7.968 3.872 7.632 3.936C7.312 3.984 7.024 4.072 6.768 4.2C6.528 4.312 6.408 4.472 6.408 4.68L6.552 8.136L6.648 8.208C6.744 8.176 6.848 8.096 6.96 7.968C7.088 7.84 7.2 7.696 7.296 7.536C7.408 7.376 7.504 7.216 7.584 7.056C7.68 6.896 7.752 6.768 7.8 6.672L7.92 6.6L8.04 6.648L9.816 8.424C9.88 8.504 9.888 8.584 9.84 8.664C9.808 8.728 9.736 8.76 9.624 8.76H7.008C6.928 8.76 6.848 8.808 6.768 8.904C6.688 8.984 6.632 9.048 6.6 9.096C6.568 9.128 6.544 9.224 6.528 9.384C6.528 9.528 6.528 9.696 6.528 9.888C6.528 10.064 6.528 10.24 6.528 10.416C6.544 10.576 6.552 10.688 6.552 10.752C6.552 10.832 6.608 10.912 6.72 10.992C6.832 11.056 6.96 11.112 7.104 11.16C7.248 11.208 7.392 11.256 7.536 11.304C7.68 11.336 7.784 11.368 7.848 11.4C8.024 11.496 8.184 11.616 8.328 11.76C8.472 11.888 8.616 12.024 8.76 12.168C8.904 12.296 9.048 12.424 9.192 12.552C9.352 12.68 9.528 12.776 9.72 12.84L9.816 12.816L9.912 12.672C9.912 12.592 9.904 12.44 9.888 12.216C9.872 11.976 9.864 11.728 9.864 11.472C9.864 11.216 9.88 10.992 9.912 10.8C9.944 10.608 10.008 10.512 10.104 10.512C10.2 10.512 10.376 10.528 10.632 10.56C10.904 10.576 11.184 10.6 11.472 10.632C11.76 10.664 12.024 10.696 12.264 10.728C12.52 10.76 12.688 10.792 12.768 10.824C12.8 10.84 12.84 10.864 12.888 10.896C12.936 10.912 12.96 10.944 12.96 10.992C12.96 11.088 12.888 11.168 12.744 11.232C12.616 11.296 12.552 11.392 12.552 11.52V22.44C12.552 22.552 12.448 22.648 12.24 22.728C12.032 22.824 11.792 22.896 11.52 22.944C11.264 23.008 11.008 23.056 10.752 23.088C10.512 23.12 10.344 23.136 10.248 23.136C10.088 23.136 10.008 23.056 10.008 22.896V15.048C10.008 14.888 9.928 14.808 9.768 14.808C9.608 14.808 9.424 14.856 9.216 14.952C9.008 15.048 8.792 15.096 8.568 15.096C8.408 15.096 8.224 15.08 8.016 15.048C7.824 15.016 7.672 14.936 7.56 14.808C7.512 14.744 7.472 14.608 7.44 14.4C7.424 14.192 7.392 13.968 7.344 13.728C7.312 13.472 7.264 13.216 7.2 12.96C7.152 12.688 7.064 12.456 6.936 12.264L6.816 12.192C6.672 12.224 6.568 12.264 6.504 12.312ZM14.736 9.048C14.752 8.92 14.744 8.8 14.712 8.688C14.68 8.576 14.656 8.464 14.64 8.352L14.352 6.312C14.352 6.28 14.336 6.208 14.304 6.096C14.272 5.968 14.248 5.84 14.232 5.712C14.216 5.584 14.216 5.472 14.232 5.376C14.248 5.28 14.296 5.232 14.376 5.232C14.68 5.232 15 5.32 15.336 5.496C15.688 5.672 16.008 5.896 16.296 6.168C16.584 6.44 16.824 6.744 17.016 7.08C17.208 7.416 17.304 7.744 17.304 8.064C17.304 8.464 17.168 8.808 16.896 9.096C16.64 9.368 16.312 9.504 15.912 9.504C15.736 9.504 15.52 9.472 15.264 9.408C15.008 9.328 14.832 9.208 14.736 9.048ZM11.232 9.36C11.2 8.992 11.12 8.56 10.992 8.064C10.88 7.568 10.784 7.12 10.704 6.72C10.672 6.576 10.64 6.432 10.608 6.288C10.576 6.128 10.56 5.976 10.56 5.832C10.56 5.768 10.568 5.712 10.584 5.664C10.616 5.6 10.672 5.568 10.752 5.568C10.816 5.568 10.864 5.576 10.896 5.592C11.2 5.72 11.512 5.872 11.832 6.048C12.152 6.208 12.44 6.408 12.696 6.648C12.968 6.872 13.184 7.136 13.344 7.44C13.52 7.744 13.608 8.08 13.608 8.448C13.608 8.784 13.512 9.064 13.32 9.288C13.128 9.512 12.904 9.672 12.648 9.768C12.392 9.864 12.128 9.88 11.856 9.816C11.584 9.752 11.376 9.6 11.232 9.36ZM1.056 8.52H2.976L3.048 8.592L2.976 8.688H1.056L0.96 8.592L1.056 8.52ZM18.792 16.512C18.728 16.512 18.624 16.52 18.48 16.536C18.336 16.536 18.192 16.536 18.048 16.536C17.904 16.536 17.768 16.536 17.64 16.536C17.512 16.52 17.424 16.496 17.376 16.464L17.328 16.392C17.36 16.376 17.448 16.368 17.592 16.368C17.736 16.352 17.896 16.344 18.072 16.344C18.264 16.344 18.44 16.352 18.6 16.368C18.76 16.368 18.872 16.368 18.936 16.368L18.984 16.416L18.96 16.44L18.792 16.512ZM44.16 0.719999C44.224 0.735999 44.4 0.863999 44.688 1.104C44.976 1.328 45.28 1.584 45.6 1.872C45.92 2.16 46.2 2.432 46.44 2.688C46.696 2.928 46.824 3.064 46.824 3.096C46.824 3.144 46.792 3.184 46.728 3.216C46.68 3.232 46.64 3.24 46.608 3.24H33.072C32.992 3.24 32.952 3.2 32.952 3.12C32.952 3.04 32.992 3 33.072 3H42.312C42.392 3 42.504 2.896 42.648 2.688C42.808 2.464 42.976 2.216 43.152 1.944C43.328 1.672 43.504 1.416 43.68 1.176C43.856 0.935999 44.016 0.783999 44.16 0.719999ZM27.36 15.624V1.368C27.36 1.208 27.44 1.128 27.6 1.128C28.16 1.128 28.712 1.16 29.256 1.224C29.816 1.288 30.376 1.368 30.936 1.464L31.056 1.56C30.976 1.688 30.848 1.8 30.672 1.896C30.512 1.976 30.432 2.08 30.432 2.208V6.864L30.504 7.008L30.648 7.08L30.768 7.056C30.816 6.992 30.888 6.864 30.984 6.672C31.096 6.464 31.2 6.256 31.296 6.048C31.408 5.824 31.512 5.632 31.608 5.472C31.704 5.296 31.776 5.208 31.824 5.208C31.904 5.208 32.04 5.32 32.232 5.544C32.424 5.768 32.624 6.024 32.832 6.312C33.04 6.584 33.216 6.856 33.36 7.128C33.52 7.384 33.6 7.56 33.6 7.656C33.6 7.72 33.56 7.76 33.48 7.776C33.416 7.792 33.368 7.808 33.336 7.824C33.24 7.84 33.032 7.84 32.712 7.824C32.392 7.792 32.056 7.768 31.704 7.752C31.368 7.736 31.064 7.744 30.792 7.776C30.536 7.808 30.408 7.896 30.408 8.04V14.784C30.408 14.944 30.488 15.024 30.648 15.024C31 15.024 31.336 14.952 31.656 14.808C31.992 14.664 32.336 14.592 32.688 14.592C32.72 14.592 32.768 14.6 32.832 14.616C32.912 14.616 32.952 14.648 32.952 14.712C32.952 14.744 32.912 14.8 32.832 14.88C32.72 14.976 32.488 15.16 32.136 15.432C31.784 15.704 31.368 16.024 30.888 16.392C30.408 16.76 29.896 17.144 29.352 17.544C28.824 17.928 28.328 18.288 27.864 18.624C27.416 18.96 27.032 19.24 26.712 19.464C26.392 19.672 26.216 19.776 26.184 19.776C26.12 19.776 26.056 19.728 25.992 19.632C25.944 19.568 25.832 19.392 25.656 19.104C25.496 18.8 25.328 18.48 25.152 18.144C24.976 17.808 24.816 17.504 24.672 17.232C24.528 16.944 24.456 16.784 24.456 16.752C24.456 16.656 24.576 16.576 24.816 16.512C25.072 16.448 25.352 16.392 25.656 16.344C25.976 16.28 26.272 16.224 26.544 16.176C26.816 16.128 26.984 16.08 27.048 16.032L27.288 15.792L27.36 15.624ZM43.128 5.16C43.208 5.192 43.368 5.304 43.608 5.496C43.864 5.688 44.136 5.904 44.424 6.144C44.712 6.368 44.976 6.584 45.216 6.792C45.472 7 45.64 7.144 45.72 7.224L45.744 7.344C45.712 7.376 45.656 7.424 45.576 7.488C45.496 7.536 45.416 7.592 45.336 7.656C45.256 7.72 45.184 7.784 45.12 7.848C45.072 7.912 45.048 7.968 45.048 8.016V17.856C45.048 17.92 45.024 17.976 44.976 18.024L44.232 18.72C44.2 18.736 44.088 18.768 43.896 18.816C43.704 18.848 43.488 18.888 43.248 18.936C43.008 18.968 42.784 19 42.576 19.032C42.368 19.064 42.232 19.08 42.168 19.08L42.024 19.008C42.024 19.008 42.024 18.992 42.024 18.96C41.992 18.784 41.976 18.608 41.976 18.432C41.976 18.256 41.976 18.08 41.976 17.904C41.944 16.128 41.928 14.368 41.928 12.624C41.928 10.864 41.928 9.096 41.928 7.32C41.928 7.16 41.848 7.08 41.688 7.08H37.512C37.352 7.08 37.272 7.16 37.272 7.32V16.992C37.272 17.152 37.352 17.232 37.512 17.232C37.64 17.232 37.904 17.232 38.304 17.232C38.704 17.232 39.12 17.232 39.552 17.232C40 17.232 40.4 17.24 40.752 17.256C41.104 17.256 41.304 17.264 41.352 17.28C41.288 17.408 41.184 17.472 41.04 17.472H37.608C37.512 17.472 37.44 17.536 37.392 17.664C37.36 17.776 37.328 17.912 37.296 18.072C37.264 18.232 37.224 18.392 37.176 18.552C37.128 18.712 37.056 18.832 36.96 18.912C36.816 19.04 36.64 19.144 36.432 19.224C36.224 19.304 36 19.368 35.76 19.416C35.536 19.464 35.312 19.504 35.088 19.536C34.864 19.552 34.656 19.56 34.464 19.56C34.32 19.56 34.248 19.504 34.248 19.392V5.688C34.248 5.656 34.256 5.616 34.272 5.568C34.304 5.504 34.344 5.472 34.392 5.472C34.584 5.472 34.832 5.544 35.136 5.688C35.44 5.816 35.752 5.96 36.072 6.12C36.392 6.28 36.688 6.432 36.96 6.576C37.248 6.704 37.464 6.768 37.608 6.768H41.352C41.4 6.768 41.496 6.696 41.64 6.552C41.8 6.408 41.968 6.248 42.144 6.072C42.336 5.896 42.512 5.72 42.672 5.544C42.832 5.368 42.936 5.256 42.984 5.208L43.128 5.16ZM25.224 7.56H26.616L26.784 7.632L26.832 7.704C26.8 7.72 26.712 7.736 26.568 7.752C26.424 7.752 26.256 7.752 26.064 7.752C25.888 7.752 25.72 7.752 25.56 7.752C25.4 7.736 25.288 7.728 25.224 7.728L25.128 7.632L25.224 7.56ZM37.848 12.096C37.896 12.08 38.096 12.064 38.448 12.048C38.8 12.032 39.184 12.024 39.6 12.024C40.016 12.024 40.4 12.032 40.752 12.048C41.104 12.064 41.304 12.08 41.352 12.096L41.4 12.168C41.368 12.184 41.16 12.2 40.776 12.216C40.408 12.216 40 12.216 39.552 12.216C39.12 12.216 38.72 12.216 38.352 12.216C38 12.2 37.816 12.184 37.8 12.168L37.848 12.096ZM47.208 21.888L47.16 22.032L46.992 22.128H30.192C30.112 22.128 30.072 22.088 30.072 22.008C30.072 21.928 30.112 21.888 30.192 21.888H42.408C42.552 21.888 42.72 21.752 42.912 21.48C43.12 21.224 43.312 20.936 43.488 20.616C43.68 20.296 43.856 20.008 44.016 19.752C44.176 19.48 44.296 19.344 44.376 19.344C44.392 19.344 44.536 19.456 44.808 19.68C45.08 19.904 45.376 20.16 45.696 20.448C46.032 20.736 46.344 21.008 46.632 21.264C46.92 21.52 47.096 21.68 47.16 21.744L47.208 21.888ZM55.608 3.168C55.544 3.088 55.536 3.016 55.584 2.952C55.648 2.872 55.72 2.832 55.8 2.832C55.992 2.832 56.4 2.832 57.024 2.832C57.664 2.832 58.392 2.832 59.208 2.832C60.04 2.832 60.912 2.832 61.824 2.832C62.752 2.832 63.6 2.832 64.368 2.832C65.136 2.832 65.776 2.832 66.288 2.832C66.8 2.816 67.064 2.8 67.08 2.784C67.208 2.704 67.328 2.584 67.44 2.424C67.552 2.248 67.664 2.056 67.776 1.848C67.904 1.64 68.024 1.44 68.136 1.248C68.248 1.056 68.368 0.895999 68.496 0.767999L68.616 0.719999C68.696 0.751999 68.872 0.879999 69.144 1.104C69.432 1.328 69.728 1.576 70.032 1.848C70.336 2.12 70.608 2.376 70.848 2.616C71.088 2.856 71.208 3 71.208 3.048C71.208 3.128 71.168 3.168 71.088 3.168H66.168C66.008 3.168 65.928 3.248 65.928 3.408V6.768C65.928 6.848 65.96 6.904 66.024 6.936C66.088 6.952 66.152 6.96 66.216 6.96C66.568 6.96 66.872 6.872 67.128 6.696C67.4 6.52 67.624 6.328 67.8 6.12C67.976 5.896 68.12 5.696 68.232 5.52C68.344 5.344 68.44 5.256 68.52 5.256C68.584 5.256 68.744 5.352 69 5.544C69.256 5.72 69.528 5.928 69.816 6.168C70.104 6.392 70.36 6.608 70.584 6.816C70.808 7.024 70.92 7.152 70.92 7.2C70.92 7.264 70.872 7.32 70.776 7.368C70.696 7.416 70.6 7.464 70.488 7.512C70.392 7.56 70.296 7.616 70.2 7.68C70.12 7.728 70.08 7.792 70.08 7.872V22.128C70.08 22.32 69.992 22.472 69.816 22.584C69.656 22.696 69.464 22.776 69.24 22.824C69.016 22.872 68.784 22.896 68.544 22.896C68.32 22.912 68.136 22.92 67.992 22.92C67.832 22.92 67.712 22.92 67.632 22.92C67.552 22.936 67.448 22.88 67.32 22.752C67.304 22.736 67.288 22.608 67.272 22.368C67.256 22.144 67.24 21.856 67.224 21.504C67.224 21.168 67.216 20.8 67.2 20.4C67.2 20 67.2 19.616 67.2 19.248C67.2 18.88 67.2 18.56 67.2 18.288C67.2 18 67.2 17.808 67.2 17.712C67.2 17.552 67.208 17.312 67.224 16.992C67.24 16.656 67.248 16.312 67.248 15.96C67.264 15.592 67.264 15.256 67.248 14.952C67.248 14.648 67.232 14.448 67.2 14.352C67.152 14.208 67.072 14.08 66.96 13.968C66.912 13.92 66.768 13.888 66.528 13.872C66.288 13.856 66.032 13.848 65.76 13.848C65.488 13.848 65.216 13.856 64.944 13.872C64.688 13.872 64.512 13.872 64.416 13.872C64.384 13.872 64.328 13.84 64.248 13.776C64.168 13.696 64.088 13.608 64.008 13.512C63.928 13.416 63.848 13.328 63.768 13.248C63.688 13.152 63.64 13.088 63.624 13.056C63.624 12.144 63.616 11.232 63.6 10.32C63.6 9.392 63.6 8.472 63.6 7.56C63.6 7.448 63.544 7.368 63.432 7.32C63.32 7.256 63.192 7.224 63.048 7.224C62.904 7.208 62.768 7.232 62.64 7.296C62.512 7.344 62.432 7.416 62.4 7.512C62.368 7.592 62.344 7.704 62.328 7.848C62.328 7.976 62.328 8.12 62.328 8.28C62.328 8.424 62.32 8.568 62.304 8.712C62.304 8.84 62.304 8.952 62.304 9.048C62.288 9.544 62.264 9.984 62.232 10.368C62.2 10.752 62.128 11.112 62.016 11.448C61.92 11.784 61.776 12.12 61.584 12.456C61.392 12.776 61.128 13.128 60.792 13.512C60.744 13.56 60.672 13.64 60.576 13.752C60.496 13.848 60.4 13.952 60.288 14.064C60.192 14.16 60.096 14.248 60 14.328C59.904 14.408 59.824 14.448 59.76 14.448C59.696 14.448 59.64 14.44 59.592 14.424C59.544 14.408 59.52 14.36 59.52 14.28C59.52 13.176 59.6 12.096 59.76 11.04C59.92 9.968 60 8.88 60 7.776C60 7.632 59.96 7.52 59.88 7.44C59.8 7.344 59.704 7.288 59.592 7.272C59.496 7.24 59.384 7.248 59.256 7.296C59.144 7.328 59.04 7.392 58.944 7.488L58.872 7.656V9.72C58.872 10.536 58.896 11.352 58.944 12.168C59.008 12.984 59.04 13.8 59.04 14.616C59.04 14.696 59.016 14.848 58.968 15.072C58.92 15.296 58.88 15.52 58.848 15.744C58.832 15.968 58.84 16.168 58.872 16.344C58.904 16.52 59 16.608 59.16 16.608H66.6C66.68 16.608 66.72 16.648 66.72 16.728C66.72 16.808 66.68 16.848 66.6 16.848H59.136L58.968 16.896C58.936 16.912 58.912 16.944 58.896 16.992C58.88 17.04 58.872 17.08 58.872 17.112C58.872 17.48 58.88 17.84 58.896 18.192C58.928 18.544 58.944 18.904 58.944 19.272C58.944 19.4 58.936 19.64 58.92 19.992C58.92 20.328 58.904 20.68 58.872 21.048C58.856 21.432 58.824 21.784 58.776 22.104C58.744 22.424 58.696 22.608 58.632 22.656C58.408 22.832 58.112 22.944 57.744 22.992C57.392 23.056 57.072 23.088 56.784 23.088C56.64 23.088 56.544 23.08 56.496 23.064C56.448 23.064 56.392 22.992 56.328 22.848C56.296 22.768 56.272 22.648 56.256 22.488C56.256 22.344 56.256 22.184 56.256 22.008C56.272 21.848 56.28 21.688 56.28 21.528C56.296 21.368 56.304 21.24 56.304 21.144C56.304 18.616 56.28 16.104 56.232 13.608C56.184 11.096 56.16 8.576 56.16 6.048C56.16 5.984 56.168 5.928 56.184 5.88C56.216 5.816 56.272 5.784 56.352 5.784C56.416 5.784 56.552 5.84 56.76 5.952C56.984 6.048 57.24 6.16 57.528 6.288C57.816 6.416 58.12 6.536 58.44 6.648C58.776 6.744 59.08 6.792 59.352 6.792C59.512 6.792 59.608 6.792 59.64 6.792C59.688 6.776 59.76 6.704 59.856 6.576C59.888 6.528 59.912 6.36 59.928 6.072C59.944 5.784 59.96 5.464 59.976 5.112C59.992 4.744 60 4.4 60 4.08C60 3.744 60 3.528 60 3.432C60 3.304 59.944 3.24 59.832 3.24H55.776L55.608 3.168ZM53.376 5.016C53.072 5.016 52.768 4.88 52.464 4.608C52.16 4.336 51.88 4.016 51.624 3.648C51.384 3.264 51.176 2.872 51 2.472C50.84 2.072 50.736 1.744 50.688 1.488C50.656 1.376 50.656 1.296 50.688 1.248C50.72 1.184 50.8 1.152 50.928 1.152C51.28 1.152 51.672 1.2 52.104 1.296C52.552 1.376 52.968 1.52 53.352 1.728C53.752 1.92 54.08 2.168 54.336 2.472C54.608 2.776 54.744 3.144 54.744 3.576C54.744 3.976 54.616 4.32 54.36 4.608C54.12 4.88 53.792 5.016 53.376 5.016ZM63.528 3.408C63.528 3.36 63.464 3.32 63.336 3.288C63.224 3.24 63.096 3.216 62.952 3.216C62.824 3.2 62.696 3.208 62.568 3.24C62.456 3.272 62.4 3.328 62.4 3.408V6.768C62.4 6.816 62.456 6.864 62.568 6.912C62.696 6.944 62.824 6.96 62.952 6.96C63.096 6.96 63.224 6.936 63.336 6.888C63.464 6.824 63.528 6.728 63.528 6.6V3.408ZM55.536 5.064C55.536 6.072 55.4 7.048 55.128 7.992C54.856 8.936 54.56 9.88 54.24 10.824C53.92 11.752 53.624 12.688 53.352 13.632C53.08 14.576 52.944 15.552 52.944 16.56C52.944 16.944 52.992 17.312 53.088 17.664C53.2 18.016 53.312 18.376 53.424 18.744C53.552 19.096 53.664 19.448 53.76 19.8C53.872 20.152 53.928 20.52 53.928 20.904C53.928 21.512 53.776 22.024 53.472 22.44C53.168 22.872 52.688 23.088 52.032 23.088C51.616 23.088 51.264 23.008 50.976 22.848C50.688 22.688 50.544 22.376 50.544 21.912C50.544 21.416 50.576 20.928 50.64 20.448C50.704 19.968 50.736 19.48 50.736 18.984C50.736 18.696 50.728 18.448 50.712 18.24C50.712 18.016 50.688 17.808 50.64 17.616C50.592 17.408 50.512 17.216 50.4 17.04C50.288 16.848 50.128 16.648 49.92 16.44C49.904 16.424 49.872 16.4 49.824 16.368C49.792 16.32 49.76 16.272 49.728 16.224C49.696 16.176 49.68 16.136 49.68 16.104C49.68 16.072 49.712 16.056 49.776 16.056C49.952 15.96 50.112 15.888 50.256 15.84C50.4 15.792 50.552 15.696 50.712 15.552C50.808 15.456 50.952 15.224 51.144 14.856C51.352 14.472 51.576 14.016 51.816 13.488C52.056 12.96 52.304 12.392 52.56 11.784C52.832 11.176 53.088 10.592 53.328 10.032C53.568 9.472 53.776 8.968 53.952 8.52C54.144 8.072 54.28 7.744 54.36 7.536C54.536 7.12 54.696 6.696 54.84 6.264C54.984 5.832 55.192 5.432 55.464 5.064H55.536ZM48.912 6.816C48.944 6.672 49.016 6.6 49.128 6.6C49.24 6.6 49.352 6.6 49.464 6.6C49.752 6.6 50.072 6.656 50.424 6.768C50.792 6.88 51.128 7.04 51.432 7.248C51.736 7.456 51.992 7.704 52.2 7.992C52.408 8.264 52.512 8.568 52.512 8.904C52.512 9.32 52.368 9.656 52.08 9.912C51.792 10.168 51.448 10.296 51.048 10.296C50.68 10.296 50.376 10.168 50.136 9.912C49.912 9.64 49.72 9.32 49.56 8.952C49.416 8.584 49.296 8.208 49.2 7.824C49.104 7.424 49.008 7.088 48.912 6.816ZM67.2 7.392C67.2 7.328 67.128 7.28 66.984 7.248C66.856 7.216 66.712 7.2 66.552 7.2C66.408 7.2 66.264 7.216 66.12 7.248C65.992 7.28 65.928 7.328 65.928 7.392V11.232C65.928 11.328 65.96 11.4 66.024 11.448C66.088 11.496 66.168 11.528 66.264 11.544C66.36 11.56 66.456 11.568 66.552 11.568C66.664 11.568 66.752 11.568 66.816 11.568C66.88 11.568 66.96 11.56 67.056 11.544C67.152 11.528 67.2 11.48 67.2 11.4V7.392ZM59.424 20.688H66.648L66.72 20.76L66.648 20.832H59.424L59.352 20.76L59.424 20.688ZM89.232 1.176C89.184 1.224 89.104 1.312 88.992 1.44C88.88 1.552 88.816 1.648 88.8 1.728V8.688C88.8 8.848 88.88 8.928 89.04 8.928C89.68 8.928 90.184 8.824 90.552 8.616C90.92 8.408 91.208 8.176 91.416 7.92C91.624 7.664 91.792 7.432 91.92 7.224C92.048 7.016 92.2 6.912 92.376 6.912C92.424 6.912 92.576 7.016 92.832 7.224C93.104 7.416 93.384 7.648 93.672 7.92C93.976 8.176 94.256 8.424 94.512 8.664C94.768 8.904 94.92 9.056 94.968 9.12C94.936 9.248 94.84 9.312 94.68 9.312H79.32C79.24 9.312 79.2 9.272 79.2 9.192C79.2 9.112 79.24 9.072 79.32 9.072H85.368C85.528 9.072 85.608 8.992 85.608 8.832V0.912C85.608 0.751999 85.688 0.671999 85.848 0.671999C86.008 0.671999 86.232 0.679999 86.52 0.696C86.824 0.711999 87.136 0.735999 87.456 0.767999C87.792 0.799999 88.104 0.839999 88.392 0.887999C88.68 0.919999 88.896 0.959999 89.04 1.008C89.168 1.04 89.232 1.096 89.232 1.176ZM85.08 5.184C85.048 5.216 84.936 5.24 84.744 5.256C84.552 5.256 84.336 5.256 84.096 5.256C83.872 5.256 83.656 5.256 83.448 5.256C83.24 5.24 83.104 5.232 83.04 5.232C82.928 5.232 82.728 5.36 82.44 5.616C82.152 5.872 81.848 6.16 81.528 6.48C81.224 6.784 80.936 7.064 80.664 7.32C80.392 7.576 80.216 7.704 80.136 7.704C80.072 7.704 80.032 7.68 80.016 7.632C80 7.568 79.992 7.512 79.992 7.464C79.992 6.632 80.12 5.824 80.376 5.04C80.648 4.24 80.896 3.44 81.12 2.64C81.184 2.416 81.232 2.2 81.264 1.992C81.296 1.768 81.344 1.544 81.408 1.32C81.44 1.16 81.512 1.08 81.624 1.08C81.736 1.08 81.976 1.136 82.344 1.248C82.712 1.344 83.088 1.464 83.472 1.608C83.872 1.752 84.224 1.896 84.528 2.04C84.832 2.184 84.984 2.288 84.984 2.352C84.984 2.4 84.904 2.52 84.744 2.712C84.584 2.904 84.408 3.128 84.216 3.384C84.04 3.624 83.872 3.872 83.712 4.128C83.552 4.384 83.472 4.592 83.472 4.752C83.472 4.896 83.552 4.976 83.712 4.992C83.888 5.008 84.072 5.016 84.264 5.016C84.472 5 84.656 5 84.816 5.016C84.992 5.016 85.08 5.072 85.08 5.184ZM74.064 1.824C74.064 1.664 74.136 1.584 74.28 1.584C74.68 1.584 75.128 1.648 75.624 1.776C76.136 1.904 76.608 2.096 77.04 2.352C77.472 2.592 77.832 2.904 78.12 3.288C78.424 3.656 78.576 4.08 78.576 4.56C78.576 5.024 78.44 5.432 78.168 5.784C77.912 6.12 77.536 6.288 77.04 6.288C76.8 6.288 76.504 6.104 76.152 5.736C75.816 5.352 75.488 4.912 75.168 4.416C74.864 3.904 74.6 3.4 74.376 2.904C74.168 2.408 74.064 2.048 74.064 1.824ZM89.424 5.16C89.392 5.16 89.36 5.152 89.328 5.136C89.312 5.136 89.296 5.136 89.28 5.136C89.28 5.12 89.272 5.112 89.256 5.112C89.24 5.112 89.224 5.104 89.208 5.088C89.208 5.024 89.264 4.976 89.376 4.944C89.488 4.896 89.616 4.856 89.76 4.824C89.904 4.776 90.048 4.736 90.192 4.704C90.352 4.656 90.472 4.592 90.552 4.512C90.616 4.448 90.704 4.328 90.816 4.152C90.928 3.976 91.048 3.8 91.176 3.624C91.304 3.448 91.424 3.288 91.536 3.144C91.648 3 91.744 2.928 91.824 2.928C91.888 2.928 92.056 3.032 92.328 3.24C92.616 3.448 92.912 3.68 93.216 3.936C93.536 4.176 93.816 4.416 94.056 4.656C94.296 4.88 94.416 5.016 94.416 5.064C94.416 5.112 94.392 5.144 94.344 5.16H89.424ZM79.464 11.736C79.448 11.832 79.384 11.904 79.272 11.952C79.16 11.984 79.04 12.016 78.912 12.048C78.784 12.08 78.664 12.128 78.552 12.192C78.456 12.256 78.408 12.368 78.408 12.528V17.64C78.408 17.736 78.312 17.928 78.12 18.216C77.944 18.504 77.712 18.848 77.424 19.248C77.152 19.632 76.848 20.04 76.512 20.472C76.176 20.904 75.848 21.296 75.528 21.648C75.224 22.016 74.952 22.32 74.712 22.56C74.488 22.8 74.344 22.928 74.28 22.944L74.232 22.92C74.184 22.808 74.08 22.592 73.92 22.272C73.76 21.968 73.592 21.64 73.416 21.288C73.24 20.952 73.08 20.648 72.936 20.376C72.808 20.088 72.744 19.92 72.744 19.872C72.744 19.776 72.888 19.688 73.176 19.608C73.464 19.528 73.784 19.448 74.136 19.368C74.488 19.272 74.808 19.176 75.096 19.08C75.384 18.984 75.528 18.88 75.528 18.768V11.88C75.528 11.704 75.384 11.616 75.096 11.616C74.808 11.6 74.496 11.608 74.16 11.64C73.824 11.656 73.512 11.672 73.224 11.688C72.936 11.688 72.792 11.616 72.792 11.472C72.792 11.424 72.816 11.392 72.864 11.376C72.928 11.36 72.968 11.344 72.984 11.328C73.304 11.248 73.648 11.232 74.016 11.28C74.384 11.312 74.728 11.328 75.048 11.328C75.112 11.328 75.208 11.24 75.336 11.064C75.48 10.888 75.624 10.688 75.768 10.464C75.912 10.224 76.048 10 76.176 9.792C76.304 9.584 76.392 9.44 76.44 9.36L76.56 9.312C76.672 9.344 76.872 9.472 77.16 9.696C77.448 9.92 77.752 10.168 78.072 10.44C78.408 10.696 78.704 10.952 78.96 11.208C79.232 11.464 79.4 11.64 79.464 11.736ZM89.664 11.64L90.984 10.32L91.128 10.272C91.208 10.304 91.384 10.416 91.656 10.608C91.944 10.8 92.24 11.016 92.544 11.256C92.864 11.496 93.144 11.72 93.384 11.928C93.624 12.136 93.744 12.256 93.744 12.288C93.744 12.352 93.704 12.416 93.624 12.48C93.56 12.528 93.48 12.584 93.384 12.648C93.304 12.696 93.224 12.752 93.144 12.816C93.08 12.864 93.048 12.928 93.048 13.008V17.952C93.048 18.08 92.928 18.192 92.688 18.288C92.448 18.368 92.176 18.44 91.872 18.504C91.568 18.552 91.264 18.592 90.96 18.624C90.672 18.64 90.48 18.648 90.384 18.648C90.256 18.648 90.176 18.568 90.144 18.408C90.112 18.232 90.104 18.056 90.12 17.88C90.136 17.688 90.12 17.504 90.072 17.328C90.056 17.28 90.032 17.216 90 17.136C89.968 17.04 89.952 16.968 89.952 16.92C89.952 16.84 89.968 16.76 90 16.68C90.048 16.584 90.072 16.496 90.072 16.416V12.432C90.072 12.272 89.992 12.192 89.832 12.192H84.552C84.392 12.192 84.312 12.272 84.312 12.432V16.512C84.312 16.672 84.392 16.752 84.552 16.752C84.728 16.752 85.064 16.752 85.56 16.752C86.072 16.752 86.6 16.752 87.144 16.752C87.704 16.752 88.216 16.76 88.68 16.776C89.144 16.776 89.416 16.784 89.496 16.8C89.464 16.832 89.416 16.872 89.352 16.92C89.304 16.968 89.256 16.992 89.208 16.992H84.648C84.504 16.992 84.408 17.056 84.36 17.184C84.312 17.296 84.264 17.432 84.216 17.592C84.184 17.736 84.128 17.888 84.048 18.048C83.984 18.208 83.864 18.336 83.688 18.432C83.608 18.464 83.44 18.528 83.184 18.624C82.928 18.704 82.656 18.776 82.368 18.84C82.096 18.888 81.848 18.92 81.624 18.936C81.4 18.936 81.288 18.88 81.288 18.768V10.848C81.288 10.784 81.296 10.728 81.312 10.68C81.344 10.616 81.4 10.584 81.48 10.584C81.544 10.584 81.68 10.648 81.888 10.776C82.112 10.888 82.368 11.016 82.656 11.16C82.96 11.288 83.272 11.416 83.592 11.544C83.912 11.656 84.208 11.712 84.48 11.712H89.496L89.664 11.64ZM84.792 22.608C84.28 22.608 83.68 22.528 82.992 22.368C82.32 22.208 81.672 21.968 81.048 21.648C80.424 21.328 79.896 20.936 79.464 20.472C79.032 19.992 78.816 19.44 78.816 18.816C78.816 18.672 78.896 18.6 79.056 18.6C79.248 18.6 79.472 18.656 79.728 18.768C79.984 18.864 80.256 18.984 80.544 19.128C80.832 19.256 81.12 19.384 81.408 19.512C81.696 19.624 81.976 19.696 82.248 19.728C82.76 19.792 83.264 19.824 83.76 19.824C84.272 19.824 84.784 19.832 85.296 19.848C87.184 19.896 89.088 19.92 91.008 19.92C91.504 19.92 91.992 19.912 92.472 19.896C92.968 19.88 93.464 19.88 93.96 19.896C94.008 19.896 94.072 19.904 94.152 19.92C94.248 19.92 94.296 19.96 94.296 20.04C94.296 20.104 94.28 20.152 94.248 20.184C94.216 20.216 94.184 20.256 94.152 20.304C93.88 20.624 93.664 20.968 93.504 21.336C93.344 21.704 93.176 22.072 93 22.44C92.936 22.552 92.864 22.608 92.784 22.608H84.792ZM99.624 14.16C99.608 14.16 99.592 14.16 99.576 14.16C99.576 14.144 99.568 14.136 99.552 14.136C99.424 14.12 99.264 14.264 99.072 14.568C98.896 14.856 98.688 15.184 98.448 15.552C98.208 15.904 97.952 16.232 97.68 16.536C97.424 16.84 97.152 16.992 96.864 16.992L96.768 16.896C96.784 16.56 96.856 16.216 96.984 15.864C97.112 15.512 97.248 15.16 97.392 14.808C97.552 14.44 97.712 14.08 97.872 13.728C98.032 13.36 98.152 13.008 98.232 12.672C98.296 12.432 98.344 12.192 98.376 11.952C98.424 11.712 98.464 11.464 98.496 11.208C98.512 10.92 98.528 10.608 98.544 10.272C98.576 9.936 98.608 9.6 98.64 9.264C98.688 8.912 98.752 8.576 98.832 8.256C98.912 7.936 99.016 7.648 99.144 7.392C99.192 7.296 99.264 7.176 99.36 7.032C99.472 6.888 99.528 6.768 99.528 6.672V0.983999C99.528 0.871999 99.576 0.816 99.672 0.816C99.784 0.816 100.008 0.831999 100.344 0.863999C100.696 0.895999 101.056 0.935999 101.424 0.983999C101.808 1.016 102.16 1.056 102.48 1.104C102.816 1.152 103.032 1.192 103.128 1.224C103.176 1.288 103.168 1.352 103.104 1.416C103.056 1.48 102.992 1.552 102.912 1.632C102.832 1.696 102.752 1.768 102.672 1.848C102.608 1.912 102.576 1.984 102.576 2.064V6.072L102.672 6.24L102.816 6.288C102.928 6.256 103.032 6.16 103.128 6C103.224 5.84 103.312 5.672 103.392 5.496C103.472 5.32 103.552 5.168 103.632 5.04C103.712 4.896 103.808 4.824 103.92 4.824C103.936 4.824 104.032 4.928 104.208 5.136C104.4 5.328 104.6 5.552 104.808 5.808C105.016 6.064 105.2 6.312 105.36 6.552C105.536 6.776 105.624 6.912 105.624 6.96C105.624 7.12 105.464 7.2 105.144 7.2C104.824 7.2 104.472 7.184 104.088 7.152C103.704 7.12 103.352 7.112 103.032 7.128C102.712 7.128 102.552 7.216 102.552 7.392V8.712C102.552 8.808 102.728 8.976 103.08 9.216C103.432 9.456 103.816 9.712 104.232 9.984C104.664 10.24 105.056 10.488 105.408 10.728C105.76 10.952 105.936 11.104 105.936 11.184C105.936 11.264 105.928 11.328 105.912 11.376C105.848 11.6 105.8 11.84 105.768 12.096C105.752 12.336 105.712 12.56 105.648 12.768C105.584 12.976 105.472 13.152 105.312 13.296C105.168 13.424 104.936 13.488 104.616 13.488C104.312 13.488 104.072 13.408 103.896 13.248C103.736 13.088 103.616 12.896 103.536 12.672C103.456 12.432 103.4 12.176 103.368 11.904C103.336 11.616 103.304 11.36 103.272 11.136C103.24 10.896 103.192 10.696 103.128 10.536C103.064 10.376 102.96 10.296 102.816 10.296C102.784 10.296 102.752 10.336 102.72 10.416C102.688 10.48 102.648 10.56 102.6 10.656C102.568 10.736 102.536 10.824 102.504 10.92C102.488 11 102.48 11.056 102.48 11.088V22.44C102.48 22.568 102.36 22.68 102.12 22.776C101.88 22.872 101.6 22.944 101.28 22.992C100.976 23.056 100.672 23.104 100.368 23.136C100.08 23.168 99.88 23.184 99.768 23.184C99.608 23.184 99.528 23.104 99.528 22.944C99.528 21.488 99.552 20.04 99.6 18.6C99.648 17.144 99.672 15.688 99.672 14.232L99.624 14.16ZM116.088 4.032L116.232 4.08C116.296 4.144 116.448 4.288 116.688 4.512C116.928 4.72 117.176 4.944 117.432 5.184C117.688 5.424 117.92 5.648 118.128 5.856C118.336 6.048 118.44 6.16 118.44 6.192C118.44 6.304 118.384 6.36 118.272 6.36H113.352C113.192 6.36 113.112 6.44 113.112 6.6V10.752C113.112 11.344 113.344 11.96 113.808 12.6C114.272 13.224 114.824 13.824 115.464 14.4C116.12 14.96 116.8 15.472 117.504 15.936C118.208 16.384 118.8 16.728 119.28 16.968L119.352 17.064L119.304 17.232C118.792 17.808 118.4 18.384 118.128 18.96C117.856 19.52 117.632 20.176 117.456 20.928L117.36 21L117.24 20.952C117 20.664 116.776 20.36 116.568 20.04C116.36 19.72 116.168 19.4 115.992 19.08C115.928 18.968 115.84 18.776 115.728 18.504C115.616 18.216 115.488 17.896 115.344 17.544C115.216 17.176 115.072 16.808 114.912 16.44C114.752 16.056 114.592 15.704 114.432 15.384C114.288 15.064 114.144 14.808 114 14.616C113.872 14.408 113.752 14.304 113.64 14.304C113.544 14.304 113.456 14.392 113.376 14.568C113.296 14.728 113.24 14.848 113.208 14.928V21.96C113.208 22.184 113.096 22.368 112.872 22.512C112.648 22.656 112.384 22.768 112.08 22.848C111.776 22.944 111.472 23.008 111.168 23.04C110.864 23.088 110.632 23.112 110.472 23.112C110.312 23.112 110.232 23.032 110.232 22.872V16.008C110.232 15.976 110.216 15.936 110.184 15.888C110.168 15.824 110.136 15.792 110.088 15.792C109.96 15.792 109.768 15.912 109.512 16.152C109.256 16.392 108.952 16.696 108.6 17.064C108.264 17.416 107.896 17.8 107.496 18.216C107.112 18.632 106.72 19.024 106.32 19.392C105.936 19.744 105.56 20.04 105.192 20.28C104.824 20.52 104.504 20.64 104.232 20.64C104.136 20.64 104.088 20.6 104.088 20.52C104.088 20.504 104.208 20.352 104.448 20.064C104.688 19.776 104.984 19.4 105.336 18.936C105.688 18.456 106.072 17.912 106.488 17.304C106.904 16.68 107.288 16.032 107.64 15.36C107.992 14.688 108.288 14.016 108.528 13.344C108.768 12.656 108.888 12.008 108.888 11.4C108.888 11.288 108.808 11.216 108.648 11.184C108.488 11.136 108.296 11.112 108.072 11.112C107.864 11.112 107.656 11.12 107.448 11.136C107.256 11.152 107.128 11.16 107.064 11.16C107.016 11.16 106.896 11.168 106.704 11.184C106.528 11.2 106.44 11.176 106.44 11.112C106.44 11.032 106.48 10.984 106.56 10.968C106.656 10.952 106.728 10.936 106.776 10.92C106.904 10.904 107.144 10.904 107.496 10.92C107.864 10.936 108.24 10.952 108.624 10.968C109.008 10.968 109.344 10.952 109.632 10.92C109.936 10.888 110.088 10.808 110.088 10.68V6.744C110.088 6.584 110.008 6.504 109.848 6.504C109.08 6.504 108.48 6.648 108.048 6.936C107.616 7.208 107.264 7.512 106.992 7.848C106.736 8.168 106.512 8.472 106.32 8.76C106.144 9.032 105.92 9.168 105.648 9.168C105.488 9.168 105.408 9.088 105.408 8.928C105.408 8.624 105.456 8.336 105.552 8.064C105.648 7.792 105.784 7.536 105.96 7.296C106.024 7.216 106.08 7.144 106.128 7.08C106.176 7 106.216 6.912 106.248 6.816C106.296 6.672 106.32 6.512 106.32 6.336C106.32 6.16 106.328 6 106.344 5.856C106.36 5.632 106.376 5.368 106.392 5.064C106.408 4.76 106.424 4.456 106.44 4.152C106.472 3.832 106.504 3.528 106.536 3.24C106.584 2.952 106.64 2.704 106.704 2.496C106.736 2.432 106.76 2.384 106.776 2.352C106.808 2.304 106.864 2.28 106.944 2.28C107.2 2.28 107.448 2.328 107.688 2.424C107.928 2.504 108.168 2.592 108.408 2.688C108.648 2.784 108.888 2.88 109.128 2.976C109.368 3.056 109.616 3.096 109.872 3.096C110.032 3.096 110.128 3.072 110.16 3.024C110.208 2.976 110.232 2.872 110.232 2.712C110.232 2.44 110.2 2.184 110.136 1.944C110.088 1.688 110.064 1.424 110.064 1.152C110.064 0.959999 110.16 0.863999 110.352 0.863999C110.832 0.863999 111.304 0.919999 111.768 1.032C112.248 1.144 112.728 1.216 113.208 1.248C113.368 1.248 113.488 1.256 113.568 1.272C113.712 1.304 113.768 1.352 113.736 1.416C113.72 1.464 113.664 1.528 113.568 1.608C113.472 1.672 113.368 1.752 113.256 1.848C113.16 1.928 113.112 2.016 113.112 2.112V5.808C113.112 5.936 113.136 6.024 113.184 6.072C113.248 6.104 113.344 6.12 113.472 6.12C113.824 6.12 114.12 6.064 114.36 5.952C114.616 5.84 114.832 5.696 115.008 5.52C115.184 5.328 115.344 5.112 115.488 4.872C115.632 4.632 115.784 4.376 115.944 4.104L116.088 4.032ZM110.088 3.936L109.992 3.768C109.912 3.736 109.824 3.728 109.728 3.744C109.68 3.76 109.592 3.864 109.464 4.056C109.352 4.248 109.232 4.472 109.104 4.728C108.976 4.968 108.864 5.2 108.768 5.424C108.672 5.632 108.624 5.768 108.624 5.832C108.624 5.944 108.68 6.024 108.792 6.072C108.904 6.104 109.032 6.128 109.176 6.144C109.32 6.144 109.464 6.144 109.608 6.144C109.752 6.128 109.856 6.12 109.92 6.12L110.088 5.952V3.936ZM98.808 7.08C98.76 7.08 98.648 7.08 98.472 7.08C98.296 7.08 98.112 7.08 97.92 7.08C97.744 7.08 97.576 7.08 97.416 7.08C97.272 7.08 97.192 7.072 97.176 7.056C97.176 7.008 97.2 6.976 97.248 6.96C97.312 6.928 97.36 6.912 97.392 6.912H98.808L98.88 6.984L98.808 7.08ZM116.784 8.76C116.896 8.776 117.08 8.88 117.336 9.072C117.608 9.248 117.88 9.456 118.152 9.696C118.44 9.936 118.688 10.176 118.896 10.416C119.104 10.656 119.208 10.832 119.208 10.944C119.208 10.992 119.176 11.032 119.112 11.064C119.064 11.08 119.024 11.088 118.992 11.088H114.216C114.088 11.088 114.016 11.048 114 10.968C114.048 10.872 114.128 10.816 114.24 10.8C114.368 10.784 114.504 10.768 114.648 10.752C114.792 10.736 114.944 10.712 115.104 10.68C115.264 10.648 115.4 10.568 115.512 10.44C115.736 10.2 115.92 9.928 116.064 9.624C116.208 9.304 116.408 9.032 116.664 8.808L116.784 8.76ZM132.816 6.36C132.912 6.264 132.96 6.176 132.96 6.096C132.976 6.016 132.984 5.912 132.984 5.784C132.984 5.016 132.952 4.248 132.888 3.48C132.824 2.696 132.792 1.92 132.792 1.152C132.792 1.04 132.816 0.975999 132.864 0.959999C132.928 0.927999 133.008 0.912 133.104 0.912C133.28 0.912 133.44 0.927999 133.584 0.959999C133.744 0.991999 133.912 1.024 134.088 1.056C134.52 1.12 134.96 1.16 135.408 1.176C135.856 1.176 136.296 1.216 136.728 1.296L136.92 1.44C136.872 1.504 136.816 1.544 136.752 1.56C136.688 1.576 136.616 1.6 136.536 1.632C136.472 1.648 136.4 1.688 136.32 1.752C136.256 1.8 136.2 1.896 136.152 2.04C136.12 2.12 136.096 2.296 136.08 2.568C136.08 2.84 136.072 3.136 136.056 3.456C136.056 3.776 136.056 4.088 136.056 4.392C136.056 4.68 136.048 4.896 136.032 5.04C136.016 5.168 136 5.296 135.984 5.424C135.984 5.536 135.984 5.656 135.984 5.784C135.984 5.912 136.008 6.024 136.056 6.12C136.12 6.216 136.152 6.32 136.152 6.432C136.152 6.544 136.128 6.64 136.08 6.72C136.032 6.8 136.008 6.896 136.008 7.008C136.008 7.424 136.04 7.832 136.104 8.232C136.184 8.632 136.256 9.04 136.32 9.456C136.432 10.272 136.584 11.104 136.776 11.952C136.968 12.8 137.216 13.624 137.52 14.424C137.84 15.208 138.232 15.96 138.696 16.68C139.16 17.384 139.728 18.008 140.4 18.552C140.432 18.584 140.488 18.6 140.568 18.6C140.872 18.6 141.12 18.48 141.312 18.24C141.504 18 141.664 17.744 141.792 17.472C141.92 17.184 142.032 16.928 142.128 16.704C142.224 16.48 142.32 16.376 142.416 16.392C142.48 16.408 142.52 16.448 142.536 16.512C142.552 16.56 142.56 16.608 142.56 16.656C142.56 17.088 142.528 17.52 142.464 17.952C142.416 18.384 142.392 18.816 142.392 19.248C142.392 19.616 142.48 20.016 142.656 20.448C142.832 20.88 142.952 21.28 143.016 21.648C143.08 22.016 143.016 22.32 142.824 22.56C142.632 22.816 142.176 22.944 141.456 22.944C140.544 22.944 139.72 22.704 138.984 22.224C138.248 21.76 137.592 21.152 137.016 20.4C136.44 19.632 135.936 18.76 135.504 17.784C135.088 16.808 134.728 15.824 134.424 14.832C134.12 13.824 133.872 12.856 133.68 11.928C133.488 10.984 133.344 10.16 133.248 9.456C133.168 8.96 133.12 8.464 133.104 7.968C133.088 7.456 132.992 6.968 132.816 6.504V6.36ZM136.872 6.6C136.824 6.6 136.768 6.592 136.704 6.576C136.656 6.544 136.616 6.512 136.584 6.48C136.696 6.448 136.808 6.432 136.92 6.432C137.048 6.432 137.168 6.416 137.28 6.384C137.488 6.336 137.696 6.272 137.904 6.192C138.128 6.112 138.32 6.008 138.48 5.88C138.656 5.752 138.792 5.6 138.888 5.424C139 5.232 139.056 5.008 139.056 4.752C139.056 4.432 138.968 4.136 138.792 3.864C138.616 3.592 138.424 3.336 138.216 3.096C138.008 2.856 137.816 2.632 137.64 2.424C137.464 2.216 137.376 2.016 137.376 1.824C137.376 1.68 137.424 1.608 137.52 1.608C137.632 1.592 137.736 1.584 137.832 1.584C138.136 1.584 138.488 1.6 138.888 1.632C139.288 1.648 139.664 1.712 140.016 1.824C140.368 1.936 140.664 2.112 140.904 2.352C141.16 2.576 141.288 2.904 141.288 3.336C141.288 3.56 141.232 3.776 141.12 3.984C141.008 4.176 140.952 4.384 140.952 4.608C140.952 4.816 141.048 5.016 141.24 5.208C141.448 5.384 141.672 5.544 141.912 5.688C142.152 5.832 142.368 5.968 142.56 6.096C142.768 6.208 142.88 6.312 142.896 6.408L142.8 6.528L142.632 6.6H136.872ZM121.056 6.528L121.008 6.456C121.024 6.44 121.048 6.432 121.08 6.432H132.36C132.392 6.432 132.416 6.44 132.432 6.456L132.384 6.528L132.216 6.6H121.224L121.056 6.528ZM133.032 17.544C133 17.624 132.92 17.712 132.792 17.808C132.664 17.888 132.52 17.976 132.36 18.072C132.2 18.152 132.04 18.224 131.88 18.288C131.72 18.352 131.6 18.408 131.52 18.456C130.736 18.824 129.952 19.192 129.168 19.56C128.384 19.928 127.592 20.288 126.792 20.64C126.36 20.832 125.912 21.016 125.448 21.192C125 21.368 124.568 21.568 124.152 21.792C123.976 21.872 123.808 22 123.648 22.176C123.488 22.352 123.312 22.44 123.12 22.44C122.976 22.44 122.784 22.304 122.544 22.032C122.304 21.776 122.064 21.472 121.824 21.12C121.6 20.768 121.4 20.424 121.224 20.088C121.064 19.752 120.984 19.512 120.984 19.368C120.984 19.32 121.024 19.28 121.104 19.248C121.2 19.216 121.304 19.2 121.416 19.2C121.528 19.184 121.64 19.176 121.752 19.176C121.864 19.16 121.936 19.152 121.968 19.152C122.48 19.12 122.984 19.072 123.48 19.008C123.976 18.928 124.472 18.832 124.968 18.72C125.032 18.704 125.152 18.672 125.328 18.624C125.504 18.576 125.592 18.512 125.592 18.432V11.64C125.592 11.48 125.512 11.4 125.352 11.4H121.92C121.856 11.4 121.808 11.368 121.776 11.304C121.744 11.24 121.728 11.184 121.728 11.136C121.728 11.088 121.752 11.056 121.8 11.04C121.864 11.008 121.912 10.992 121.944 10.992H128.544C128.608 10.992 128.72 10.888 128.88 10.68C129.056 10.456 129.232 10.216 129.408 9.96C129.6 9.688 129.776 9.448 129.936 9.24C130.096 9.016 130.208 8.904 130.272 8.904C130.336 8.904 130.496 9.008 130.752 9.216C131.008 9.424 131.264 9.664 131.52 9.936C131.792 10.192 132.032 10.448 132.24 10.704C132.464 10.944 132.576 11.096 132.576 11.16C132.576 11.24 132.544 11.288 132.48 11.304C132.416 11.32 132.352 11.328 132.288 11.328H129.048C128.888 11.328 128.808 11.408 128.808 11.568V17.832C128.808 17.992 128.888 18.072 129.048 18.072C129.368 18.072 129.688 18.04 130.008 17.976C130.328 17.912 130.648 17.848 130.968 17.784C131.288 17.704 131.608 17.632 131.928 17.568C132.248 17.504 132.568 17.472 132.888 17.472C132.952 17.472 133 17.496 133.032 17.544ZM145.536 10.704C145.616 10.544 145.776 10.376 146.016 10.2C146.256 10.024 146.44 9.872 146.568 9.744C147.624 8.848 148.632 7.88 149.592 6.84C150.552 5.8 151.4 4.688 152.136 3.504C152.312 3.232 152.464 2.952 152.592 2.664C152.736 2.376 152.88 2.088 153.024 1.8C153.12 1.608 153.216 1.424 153.312 1.248C153.424 1.056 153.52 0.855999 153.6 0.647999C153.696 0.551999 153.784 0.503999 153.864 0.503999C153.944 0.503999 154.184 0.559999 154.584 0.671999C154.984 0.767999 155.416 0.879999 155.88 1.008C156.36 1.136 156.816 1.264 157.248 1.392C157.68 1.504 157.976 1.584 158.136 1.632C158.2 1.664 158.232 1.696 158.232 1.728C158.232 1.792 158.184 1.848 158.088 1.896C157.992 1.928 157.88 1.96 157.752 1.992C157.624 2.008 157.496 2.032 157.368 2.064C157.256 2.08 157.176 2.096 157.128 2.112C156.984 2.16 156.816 2.304 156.624 2.544C156.448 2.784 156.256 3.056 156.048 3.36C155.856 3.648 155.664 3.936 155.472 4.224C155.296 4.496 155.152 4.704 155.04 4.848C154.8 5.136 154.448 5.48 153.984 5.88C153.52 6.28 153 6.704 152.424 7.152C151.848 7.584 151.24 8.016 150.6 8.448C149.96 8.88 149.328 9.272 148.704 9.624C148.096 9.96 147.52 10.24 146.976 10.464C146.432 10.672 145.984 10.776 145.632 10.776C145.584 10.776 145.552 10.752 145.536 10.704ZM167.184 7.488C166.928 7.808 166.664 8.112 166.392 8.4C166.12 8.688 165.864 8.992 165.624 9.312C165.464 9.52 165.32 9.736 165.192 9.96C165.064 10.168 164.936 10.384 164.808 10.608C164.76 10.704 164.688 10.752 164.592 10.752C164.288 10.752 163.904 10.6 163.44 10.296C162.992 9.992 162.504 9.608 161.976 9.144C161.464 8.664 160.944 8.136 160.416 7.56C159.904 6.968 159.432 6.384 159 5.808C158.584 5.232 158.24 4.696 157.968 4.2C157.712 3.704 157.584 3.304 157.584 3C157.584 2.888 157.648 2.856 157.776 2.904C157.92 2.936 158.08 3.008 158.256 3.12C158.432 3.216 158.592 3.328 158.736 3.456C158.896 3.568 159 3.64 159.048 3.672C159.608 4.056 160.176 4.44 160.752 4.824C161.328 5.208 161.928 5.536 162.552 5.808C162.856 5.952 163.224 6.072 163.656 6.168C164.088 6.264 164.52 6.36 164.952 6.456C165.384 6.552 165.792 6.656 166.176 6.768C166.56 6.864 166.864 6.984 167.088 7.128C167.216 7.208 167.248 7.328 167.184 7.488ZM161.52 9.624C161.456 9.736 161.36 9.792 161.232 9.792H150.528C150.448 9.792 150.408 9.752 150.408 9.672C150.408 9.592 150.448 9.552 150.528 9.552H156.96C157.152 9.552 157.344 9.448 157.536 9.24C157.728 9.016 157.912 8.776 158.088 8.52C158.264 8.248 158.424 8.008 158.568 7.8C158.712 7.576 158.824 7.464 158.904 7.464C158.936 7.464 159.08 7.568 159.336 7.776C159.608 7.984 159.896 8.216 160.2 8.472C160.52 8.728 160.808 8.976 161.064 9.216C161.336 9.44 161.488 9.576 161.52 9.624ZM150.312 19.488C150.36 19.44 150.408 19.392 150.456 19.344C150.504 19.296 150.544 19.24 150.576 19.176C150.592 19.16 150.632 19.04 150.696 18.816C150.76 18.592 150.84 18.312 150.936 17.976C151.032 17.64 151.128 17.28 151.224 16.896C151.336 16.496 151.432 16.128 151.512 15.792C151.608 15.456 151.688 15.176 151.752 14.952C151.816 14.712 151.848 14.584 151.848 14.568C151.848 14.472 151.848 14.352 151.848 14.208C151.848 14.048 151.768 13.968 151.608 13.968H146.256C146.224 13.968 146.184 13.96 146.136 13.944C146.088 13.928 146.064 13.904 146.064 13.872C146.064 13.824 146.072 13.776 146.088 13.728C146.12 13.664 146.168 13.632 146.232 13.632H161.112C161.352 13.632 161.56 13.528 161.736 13.32C161.912 13.112 162.072 12.88 162.216 12.624C162.376 12.352 162.528 12.096 162.672 11.856C162.832 11.616 163.016 11.464 163.224 11.4C163.352 11.432 163.552 11.544 163.824 11.736C164.096 11.928 164.376 12.152 164.664 12.408C164.952 12.648 165.232 12.888 165.504 13.128C165.776 13.368 165.976 13.544 166.104 13.656L166.152 13.776C166.136 13.84 166.096 13.904 166.032 13.968C165.984 14.016 165.92 14.04 165.84 14.04H156.12C156.056 14.04 156.016 14.048 156 14.064C155.984 14.08 155.96 14.104 155.928 14.136C155.544 14.568 155.184 15.016 154.848 15.48C154.512 15.928 154.16 16.376 153.792 16.824C153.424 17.272 153.032 17.696 152.616 18.096C152.2 18.496 151.8 18.904 151.416 19.32L151.368 19.464C151.368 19.64 151.456 19.728 151.632 19.728C153.056 19.728 154.464 19.648 155.856 19.488C157.248 19.328 158.656 19.248 160.08 19.248C160.224 19.248 160.384 19.256 160.56 19.272C160.736 19.288 160.872 19.224 160.968 19.08C160.984 18.776 160.856 18.48 160.584 18.192C160.328 17.888 160.048 17.6 159.744 17.328C159.44 17.056 159.168 16.792 158.928 16.536C158.704 16.28 158.632 16.032 158.712 15.792L158.784 15.744C159.44 15.856 160.144 16.056 160.896 16.344C161.664 16.632 162.368 17.008 163.008 17.472C163.664 17.92 164.208 18.456 164.64 19.08C165.072 19.704 165.288 20.408 165.288 21.192C165.288 21.704 165.16 22.144 164.904 22.512C164.648 22.896 164.24 23.088 163.68 23.088C163.296 23.088 163 23.024 162.792 22.896C162.584 22.768 162.424 22.6 162.312 22.392C162.2 22.184 162.12 21.952 162.072 21.696C162.024 21.44 161.96 21.184 161.88 20.928C161.816 20.672 161.72 20.432 161.592 20.208C161.48 19.968 161.304 19.768 161.064 19.608C161.048 19.592 161.008 19.584 160.944 19.584C160.864 19.584 160.736 19.608 160.56 19.656C160.4 19.704 160.224 19.76 160.032 19.824C159.84 19.888 159.656 19.952 159.48 20.016C159.304 20.08 159.168 20.128 159.072 20.16C157.776 20.576 156.472 20.936 155.16 21.24C153.864 21.544 152.56 21.856 151.248 22.176C150.976 22.24 150.696 22.304 150.408 22.368C150.136 22.432 149.864 22.512 149.592 22.608C149.4 22.688 149.216 22.784 149.04 22.896C148.864 23.024 148.664 23.088 148.44 23.088C148.344 23.088 148.184 22.936 147.96 22.632C147.736 22.344 147.504 22.008 147.264 21.624C147.04 21.24 146.832 20.872 146.64 20.52C146.464 20.152 146.376 19.912 146.376 19.8C146.376 19.64 146.448 19.56 146.592 19.56H150.144L150.312 19.488ZM169.128 15L169.176 14.88C169.624 14.432 170.12 13.896 170.664 13.272C171.224 12.632 171.768 11.96 172.296 11.256C172.824 10.552 173.304 9.848 173.736 9.144C174.168 8.44 174.488 7.792 174.696 7.2C174.744 7.04 174.792 6.848 174.84 6.624C174.904 6.4 174.904 6.208 174.84 6.048L174.672 5.952H169.248C169.168 5.952 169.128 5.912 169.128 5.832C169.128 5.752 169.168 5.712 169.248 5.712H171.912C171.976 5.712 172.032 5.68 172.08 5.616C172.128 5.536 172.152 5.464 172.152 5.4C172.152 4.68 172.128 3.976 172.08 3.288C172.032 2.6 172.008 1.896 172.008 1.176C172.008 1.08 172.04 1.024 172.104 1.008C172.168 0.991999 172.24 0.983999 172.32 0.983999C172.496 0.983999 172.712 0.991999 172.968 1.008C173.24 1.008 173.512 1.024 173.784 1.056C174.056 1.072 174.32 1.096 174.576 1.128C174.832 1.16 175.04 1.2 175.2 1.248C175.232 1.264 175.28 1.288 175.344 1.32C175.424 1.352 175.464 1.392 175.464 1.44C175.464 1.504 175.416 1.592 175.32 1.704C175.224 1.8 175.152 1.864 175.104 1.896L175.032 2.064V5.16C175.032 5.272 175.088 5.328 175.2 5.328C175.328 5.328 175.456 5.272 175.584 5.16C175.712 5.032 175.832 4.896 175.944 4.752C176.072 4.592 176.192 4.456 176.304 4.344C176.416 4.216 176.528 4.152 176.64 4.152C176.704 4.152 176.84 4.256 177.048 4.464C177.256 4.656 177.48 4.888 177.72 5.16C177.96 5.416 178.184 5.664 178.392 5.904C178.6 6.144 178.744 6.304 178.824 6.384L178.872 6.504L178.8 6.6C178.528 6.6 178.256 6.72 177.984 6.96C177.728 7.184 177.48 7.456 177.24 7.776C177 8.08 176.776 8.4 176.568 8.736C176.36 9.072 176.192 9.336 176.064 9.528C175.968 9.672 175.864 9.816 175.752 9.96C175.64 10.088 175.536 10.224 175.44 10.368C175.312 10.544 175.336 10.688 175.512 10.8C175.576 10.848 175.704 10.904 175.896 10.968C176.088 11.016 176.224 11.056 176.304 11.088C176.592 11.184 176.88 11.288 177.168 11.4C177.456 11.496 177.712 11.632 177.936 11.808C178.176 11.968 178.368 12.168 178.512 12.408C178.656 12.648 178.728 12.952 178.728 13.32C178.728 13.672 178.632 13.976 178.44 14.232C178.264 14.472 177.984 14.592 177.6 14.592C177.392 14.592 177.208 14.56 177.048 14.496C176.888 14.416 176.752 14.288 176.64 14.112C176.56 13.968 176.48 13.744 176.4 13.44C176.32 13.136 176.224 12.832 176.112 12.528C176.016 12.224 175.896 11.96 175.752 11.736C175.608 11.496 175.432 11.376 175.224 11.376C175.192 11.376 175.168 11.4 175.152 11.448C175.136 11.496 175.128 11.536 175.128 11.568V22.272C175.128 22.448 175.008 22.584 174.768 22.68C174.528 22.792 174.248 22.88 173.928 22.944C173.624 23.024 173.32 23.072 173.016 23.088C172.728 23.12 172.52 23.136 172.392 23.136C172.232 23.136 172.152 23.056 172.152 22.896V13.824C172.152 13.68 172.096 13.608 171.984 13.608C171.712 13.608 171.464 13.672 171.24 13.8C171.016 13.928 170.792 14.072 170.568 14.232C170.36 14.392 170.144 14.552 169.92 14.712C169.696 14.872 169.456 14.984 169.2 15.048L169.128 15ZM190.632 9.792H185.832C185.672 9.792 185.592 9.872 185.592 10.032V21.552C185.592 21.712 185.672 21.792 185.832 21.792H186.888C186.968 21.792 187.08 21.696 187.224 21.504C187.384 21.312 187.536 21.096 187.68 20.856C187.84 20.6 187.984 20.352 188.112 20.112C188.256 19.872 188.36 19.712 188.424 19.632L188.568 19.56C188.616 19.544 188.776 19.632 189.048 19.824C189.336 20.016 189.632 20.248 189.936 20.52C190.256 20.792 190.544 21.064 190.8 21.336C191.056 21.608 191.184 21.816 191.184 21.96C191.184 22.024 191.16 22.064 191.112 22.08C191.064 22.112 191.016 22.128 190.968 22.128L176.64 22.272C176.528 22.272 176.472 22.208 176.472 22.08C176.472 22 176.528 21.96 176.64 21.96H181.992C182.152 21.96 182.232 21.88 182.232 21.72V1.224C182.232 1.064 182.312 0.983999 182.472 0.983999C182.6 0.983999 182.856 0.991999 183.24 1.008C183.64 1.024 184.048 1.056 184.464 1.104C184.896 1.136 185.272 1.192 185.592 1.272C185.928 1.352 186.096 1.448 186.096 1.56C186.096 1.656 186.008 1.744 185.832 1.824C185.672 1.888 185.592 1.976 185.592 2.088V9.312C185.592 9.408 185.64 9.464 185.736 9.48C185.848 9.496 185.936 9.504 186 9.504C186.368 9.504 186.672 9.392 186.912 9.168C187.168 8.928 187.376 8.664 187.536 8.376C187.712 8.088 187.856 7.832 187.968 7.608C188.08 7.368 188.192 7.248 188.304 7.248C188.384 7.248 188.56 7.36 188.832 7.584C189.104 7.808 189.384 8.056 189.672 8.328C189.976 8.6 190.24 8.872 190.464 9.144C190.704 9.4 190.824 9.56 190.824 9.624C190.824 9.672 190.816 9.704 190.8 9.72L190.632 9.792ZM178.464 9.648H181.68L181.752 9.72L181.68 9.792H178.464L178.392 9.72L178.464 9.648Z" fill="#f6f7f8"/>
</svg>
